<svg viewBox="0 0 400 400" xmlns="http://www.w3.org/2000/svg" xmlns:xlink="http://www.w3.org/1999/xlink">
  <rect fill="#FF602E" width="400" height="400"/>
  <polygon fill="#FFFFFF" points="200,152.4 200,152.4 152.4,152.4 152.4,152.4 152.4,168.3 152.4,184.1 152.4,200 152.4,215.9 152.4,247.6 200,247.6 200,215.9 223.8,215.9 223.8,200 223.8,184.1 247.6,184.1 247.6,168.3 247.6,152.4"/>
  <polygon fill="#FFFFFF" points="97.6,152.4 97.6,200 50,152.4 50,247.6 97.6,247.6 145.2,247.6 145.2,200 145.2,152.4"/>
  <path fill="#FFFFFF" d="M302.4,152.4h-47.6V200v47.6h47.6c26.3,0,47.6-21.3,47.6-47.6C350,173.7,328.7,152.4,302.4,152.4z"/>
</svg>
