<?xml version="1.0" encoding="utf-8"?>
<!-- Generator: Adobe Illustrator 26.3.1, SVG Export Plug-In . SVG Version: 6.00 Build 0)  -->
<svg version="1.1" id="Layer_1" xmlns="http://www.w3.org/2000/svg" xmlns:xlink="http://www.w3.org/1999/xlink" x="0px" y="0px"
	 viewBox="0 0 640 107.8" style="enable-background:new 0 0 640 107.8;" xml:space="preserve">
<style type="text/css">
	.st0{fill:#FFFFFF;}
</style>
<g>
	<path class="st0" d="M22,65.8c0,13.5,7.9,22.3,22.1,22.3c14.1,0,22-8.8,22-22.3V0h22v68c0,23.2-17.1,39-44,39
		C17.1,107.1,0,91.2,0,68V0h22V65.8z"/>
	<path class="st0" d="M131.8,25.4c19.6,0,32.4,9.9,32.7,25.1h-19.6c-0.4-6.3-5.5-10.1-13.3-10.1c-7.4,0-12.2,3.4-12.2,8.4
		c0,3.9,3.4,6.5,10.2,8.1l14.9,3.2c15.7,3.5,22,9.7,22,21.4c0,15.4-14.1,25.5-34.8,25.5c-20.9,0-33.7-10.1-34.9-25.3h20.8
		c1,6.6,6.2,10.4,14.7,10.4c8.1,0,13-3.2,13-8.3c0-3.9-2.6-6.1-9.6-7.8l-14.4-3.2C106.4,69.3,98.8,61.5,98.8,50
		C98.8,35.1,111.7,25.4,131.8,25.4z"/>
	<path class="st0" d="M244.6,81.3c-2.3,15.3-16.3,25.6-35.7,25.6c-24.1,0-38.5-15.4-38.5-40.4c0-24.9,14.6-41.1,37.7-41.1
		c22.8,0,37.1,15.4,37.1,39.2V71h-53.9v1.3c0,11.2,7.1,18.8,17.9,18.8c7.8,0,13.8-3.9,15.8-9.8H244.6z M191.6,58h33.2
		c-0.4-10-6.9-16.8-16.4-16.8C199.1,41.1,192.3,48.2,191.6,58z"/>
	<path class="st0" d="M290.8,105.2H270L242.1,0H265l16.6,76.2h0.6L301.8,0h18.6l19.7,76.2h0.6L357.3,0h22.8l-27.9,105.2h-20.8
		l-20-71.9h-0.7L290.8,105.2z"/>
	<path class="st0" d="M373.5,82.8c0-14.2,10.9-22.5,30.4-23.6l19.7-1.2v-5.2c0-7.3-5.1-11.5-13.1-11.5c-7.9,0-13,3.9-14,9.7H377
		c0.8-15.2,13.7-25.6,34.4-25.6c20.1,0,33.1,10.4,33.1,26.1v53.7H424v-12h-0.4c-4.4,8.3-14.1,13.2-23.8,13.2
		C384.8,106.5,373.5,96.8,373.5,82.8z M423.6,76.6v-5.7l-16.5,1c-7.9,0.6-12.5,4.2-12.5,9.7c0,5.8,4.8,9.5,12,9.5
		C416,91.1,423.6,85,423.6,76.6z"/>
	<path class="st0" d="M455,0h21.3v105.2H455V0z"/>
	<path class="st0" d="M487.5,0h21.3v105.2h-21.3V0z"/>
	<path class="st0" d="M590.7,81.3c-2.3,15.3-16.3,25.6-35.7,25.6c-24.1,0-38.5-15.4-38.5-40.4c0-24.9,14.6-41.1,37.7-41.1
		c22.8,0,37.1,15.4,37.1,39.2V71h-53.9v1.3c0,11.2,7.1,18.8,17.9,18.8c7.8,0,13.8-3.9,15.8-9.8H590.7z M537.7,58h33.2
		c-0.4-10-6.9-16.8-16.4-16.8C545.1,41.1,538.4,48.2,537.7,58z"/>
	<path class="st0" d="M625.6,9v18H640v16h-14.4v37.4c0,6,2.9,8.8,9.2,8.8c1.9,0,3.9-0.1,5.2-0.4v15.7c-2.2,0.5-5.8,0.9-10.1,0.9
		c-18.4,0-25.5-6.1-25.5-21.4V43.1h-11v-16h11V9H625.6z"/>
</g>
</svg>
